Coordinates
version=1
nRows=22
nColumns=24
inDegrees=yes

Units are S.I. units (second, meters, Newtons, ...)
Angles are in degrees.

endheader
time	pelvis_tilt	pelvis_list	pelvis_rotation	pelvis_tx	pelvis_ty	pelvis_tz	hip_flexion_r	hip_adduction_r	hip_rotation_r	knee_angle_r	ankle_angle_r	subtalar_angle_r	mtp_angle_r	hip_flexion_l	hip_adduction_l	hip_rotation_l	knee_angle_l	ankle_angle_l	subtalar_angle_l	mtp_angle_l	lumbar_extension	lumbar_bending	lumbar_rotation
      4.08500000	    -18.38292378	     -4.80932728	      4.84144740	     -1.88871358	     -0.03784429	     -0.32122640	     44.13371882	      3.33569957	    -18.30346552	    -12.40306040	     -1.59861603	     -2.36440062	     20.40869001	      0.07159350	     -3.39617502	     -7.81541118	    -15.75348324	      6.62596265	     16.60163524	     12.83531328	     22.29701054	     -2.02954642	    -24.84583320
      4.09000000	    -18.35909956	     -5.07181949	      4.99821227	     -1.88069684	     -0.03919260	     -0.32140907	     44.26328311	      3.47101307	    -18.14693288	    -13.25242952	     -2.33379150	     -3.60555493	     20.34794918	     -0.03072602	     -3.83602271	     -7.60463525	    -16.53173788	      6.28202534	     16.94817868	     12.86282385	     22.43768263	     -1.76934552	    -25.05240541
      4.09500000	    -18.33685483	     -5.35096144	      5.05188889	     -1.87261215	     -0.04052387	     -0.32142700	     44.40109748	      3.71861315	    -17.78531187	    -14.12751396	     -3.23353578	     -5.19090185	     20.20310613	     -0.11920286	     -4.31705633	     -7.56649631	    -17.34793610	      5.86308916	     17.37963427	     13.00305452	     22.59198280	     -1.45688860	    -25.15062890
      4.10000000	    -18.31928613	     -5.62210547	      4.98781005	     -1.86445829	     -0.04181738	     -0.32131856	     44.56467787	      4.05255091	    -17.25182361	    -15.06803408	     -4.21780495	     -6.92444105	     19.88296117	     -0.20031477	     -4.80934168	     -7.75895001	    -18.18478818	      5.30404254	     17.85508108	     13.34025137	     22.76121588	     -1.09642571	    -25.10537311
      4.10500000	    -18.30854293	     -5.91443263	      4.97596520	     -1.85639116	     -0.04306307	     -0.32120506	     44.77471913	      4.37289272	    -16.73185698	    -16.10806104	     -5.16199631	     -8.73713496	     19.25407226	     -0.21041151	     -5.33546625	     -7.80924936	    -19.07911592	      4.66559741	     18.34530388	     13.94758121	     22.92366966	     -0.74689655	    -25.10566440
      4.11000000	    -18.32676399	     -6.26682867	      4.97025125	     -1.84829245	     -0.04424487	     -0.32115080	     45.02770432	      4.73999077	    -16.20141892	    -17.19702994	     -6.05821198	    -10.56745624	     18.39825852	     -0.12555705	     -5.92466093	     -7.86803579	    -20.05504747	      3.89244093	     18.70287154	     14.62425416	     23.13101463	     -0.34341611	    -25.19298509
      4.11500000	    -18.28741553	     -6.56653524	      4.99206700	     -1.84029859	     -0.04524725	     -0.32101342	     45.27284982	      5.06941655	    -15.58214211	    -18.47983731	     -6.70218237	    -12.09528064	     15.89914900	     -0.07044887	     -6.48350089	     -7.89752825	    -20.96929511	      2.77646119	     18.99977972	     16.43096369	     23.25113547	     -0.00683131	    -25.26847137
      4.12000000	    -18.33231041	     -6.91120013	      4.93904998	     -1.83225463	     -0.04633523	     -0.32087147	     45.60776007	      5.48001777	    -14.94238476	    -19.71528656	     -7.32566553	    -13.86849684	     14.96602077	      0.14401941	     -7.08246436	     -7.95381171	    -22.09780196	      1.79632152	     19.40955426	     16.98536779	     23.48054606	      0.40207542	    -25.29929205
      4.12500000	    -18.27996162	     -7.19922195	      4.93714428	     -1.82432339	     -0.04718865	     -0.32066273	     45.87562481	      5.84772629	    -14.21784535	    -21.14150333	     -7.53335281	    -15.07068614	     11.95168637	      0.29332694	     -7.64431965	     -7.94981596	    -23.13668184	      0.39392528	     19.63869937	     18.96598623	     23.57863941	      0.72936160	    -25.36564918
      4.13000000	    -18.25951437	     -7.49118564	      4.91901070	     -1.81640572	     -0.04803839	     -0.32044599	     46.16505337	      6.23542999	    -13.52003459	    -22.53109209	     -7.61853709	    -16.31574542	      9.81436750	      0.55654377	     -8.21677850	     -7.96014788	    -24.32870524	     -1.04334409	     19.93540459	     20.36429453	     23.71227069	      1.06081556	    -25.41940452
      4.13500000	    -18.20439268	     -7.78485734	      4.91918370	     -1.80851340	     -0.04877195	     -0.32026984	     46.40638450	      6.61658239	    -12.93347433	    -23.93245034	     -7.48651141	    -17.31514670	      7.54554421	      0.83731786	     -8.78434981	     -7.87808123	    -25.54559702	     -2.67233354	     20.08725398	     21.99163256	     23.80712385	      1.39076709	    -25.48365166
      4.14000000	    -18.15690157	     -8.06071588	      4.89777332	     -1.80065141	     -0.04946650	     -0.32004444	     46.63882195	      6.99545933	    -12.45617170	    -25.31416357	     -7.22292691	    -18.18650590	      5.52849118	      1.18275283	     -9.34167067	     -7.80362884	    -26.82769209	     -4.43483897	     20.26195248	     23.57161088	     23.90113673	      1.70958677	    -25.49725903
      4.14500000	    -18.00512255	     -8.32092518	      4.97171857	     -1.79290138	     -0.04995231	     -0.31998746	     46.70406946	      7.31532838	    -12.01401769	    -26.62980791	     -6.68804254	    -18.73977942	      3.33455840	      1.49975889	     -9.84953290	     -7.51897236	    -28.13016109	     -6.39342902	     20.08782945	     25.37975495	     23.87039598	      1.98978507	    -25.65756039
      4.15000000	    -17.88981112	     -8.55348153	      5.01995293	     -1.78520393	     -0.05043924	     -0.31985533	     46.77069034	      7.61560806	    -11.71681133	    -27.87156700	     -6.10676892	    -19.24701680	      1.63962020	      1.92270684	    -10.33679152	     -7.26767952	    -29.51868440	     -8.44939071	     19.99431889	     26.95706841	     23.86928354	      2.24419559	    -25.73843104
      4.15500000	    -17.76214265	     -8.81116421	      5.13046718	     -1.77759302	     -0.05084015	     -0.31983863	     46.75151682	      7.88902507	    -11.51843161	    -28.97943031	     -5.41089972	    -19.57939360	      0.27555339	      2.42833417	    -10.82468898	     -6.88024588	    -30.97771358	    -10.57731271	     19.73980869	     28.40835149	     23.84894657	      2.50044835	    -25.94013262
      4.16000000	    -17.55123418	     -8.97286201	      5.23372779	     -1.77010950	     -0.05107765	     -0.31983025	     46.59075689	      8.09150097	    -11.36873630	    -30.01631599	     -4.59997066	    -19.75036260	     -0.87393367	      2.87780549	    -11.18258670	     -6.44194554	    -32.43370998	    -12.82249722	     19.31505048	     29.73002697	     23.70972810	      2.68346253	    -26.06047802
      4.16500000	    -17.34348430	     -9.18499221	      5.27731847	     -1.76261228	     -0.05128275	     -0.31981134	     46.33839851	      8.38462180	    -11.24310648	    -30.83732619	     -3.91832145	    -20.11570295	     -1.04822135	      3.38940305	    -11.58458928	     -6.07714575	    -34.03279497	    -14.93879270	     18.90336786	     29.87917361	     23.58277413	      2.95102652	    -26.13650904
      4.17000000	    -17.23606617	     -9.35587069	      5.35972957	     -1.75523104	     -0.05150250	     -0.31975541	     46.16727990	      8.58041950	    -11.23591843	    -31.67971738	     -2.95657470	    -19.91928260	     -2.24176017	      4.05548108	    -11.91763879	     -5.60076633	    -35.51396560	    -17.26965814	     18.25634198	     31.59367004	     23.54896390	      3.13004373	    -26.24129064
      4.17500000	    -17.01897645	     -9.54495434	      5.44803448	     -1.74801447	     -0.05154435	     -0.31973149	     45.79826183	      8.81702950	    -11.25841701	    -32.29893072	     -2.24558072	    -20.11452080	     -2.29572463	      4.69105148	    -12.25761568	     -5.12681819	    -37.17539268	    -19.31072113	     17.73443033	     31.58509517	     23.36900360	      3.35207378	    -26.34437807
      4.18000000	    -16.89785660	     -9.71267901	      5.59382124	     -1.74086568	     -0.05162257	     -0.31979239	     45.49132293	      8.94544044	    -11.43026237	    -32.87779287	     -1.34591918	    -19.96286530	     -2.42901446	      5.49356902	    -12.52682579	     -4.52848534	    -38.83207061	    -21.27124750	     17.12852493	     31.79270448	     23.29795513	      3.50995139	    -26.49706917
      4.18500000	    -16.75094886	     -9.92039438	      5.62284565	     -1.73375020	     -0.05161224	     -0.31972036	     45.08887237	      9.22481754	    -11.48873950	    -33.30115711	     -0.61886187	    -19.97859581	     -2.42420583	      6.27445980	    -12.85266016	     -4.11906642	    -40.52102145	    -23.02054239	     16.40893949	     31.68523738	     23.19025578	      3.76604178	    -26.53136741
      4.19000000	    -16.67908345	    -10.08931698	      5.73665889	     -1.72674164	     -0.05159247	     -0.31976082	     44.73053283	      9.36727109	    -11.70232561	    -33.67854184	      0.22757789	    -19.78245919	     -2.37274936	      7.20654967	    -13.07912561	     -3.54807881	    -42.22143669	    -24.55498902	     15.68912684	     31.46233376	     23.15985268	      3.93338253	    -26.62742985
